<?xml version="1.0" encoding="UTF-8" standalone="no"?>
<!-- Uploaded to: SVG Repo, www.svgrepo.com, Generator: SVG Repo Mixer Tools -->
<svg width="800px" height="800px" viewBox="0 0 64 64" version="1.1" xmlns="http://www.w3.org/2000/svg" xmlns:xlink="http://www.w3.org/1999/xlink">

    <title>cel-balloons</title>
    <desc>Created with Sketch.</desc>
    <defs>

</defs>
    <g id="64px-Line" stroke="none" stroke-width="1" fill="none" fill-rule="evenodd">
        <g id="cel-balloons">

</g>
        <path d="M42,21 C42,12.168 36.654,6 29,6 C21.346,6 16,12.168 16,21 C16,28.566 19.956,36.888 25.66,39.306 C24.648,40.222 24,41.531 24,43 C24,43.553 24.448,44 25,44 L25.944,44 C24.927,44.998 24,46.353 24,48 C24,50.102 25.955,51.501 27.68,52.735 C28.714,53.475 30,54.395 30,55 C30,56.278 27.725,57.623 26.623,58.074 C26.112,58.283 25.867,58.866 26.075,59.377 C26.233,59.766 26.606,60 27,60 C27.125,60 27.253,59.977 27.376,59.927 C27.85,59.734 32,57.963 32,55 C32,53.368 30.396,52.22 28.844,51.109 C27.511,50.155 26,49.073 26,48 C26,46.182 28.184,44.592 29.249,44 L33,44 C33.552,44 34,43.553 34,43 C34,41.531 33.352,40.222 32.34,39.306 C38.044,36.888 42,28.566 42,21 L42,21 Z M31.829,42 L26.172,42 C26.585,40.836 27.697,40 29.001,40 C30.305,40 31.416,40.836 31.829,42 L31.829,42 Z M29,38 C23.346,38 18,29.738 18,21 C18,13.225 22.42,8 29,8 C35.58,8 40,13.225 40,21 C40,29.738 34.654,38 29,38 L29,38 Z" id="Shape" fill="#F8FBFD">

</path>
        <path d="M40.217,37.36 C40.305,37.36 40.395,37.348 40.484,37.324 C44.288,36.272 48.105,34.034 50.956,31.183 C57.116,25.023 57.689,16.99 52.35,11.65 C49.363,8.664 45.301,7.43 41.206,8.254 C40.665,8.363 40.314,8.892 40.424,9.433 C40.533,9.974 41.057,10.327 41.602,10.215 C45.077,9.514 48.393,10.525 50.935,13.065 C55.514,17.644 54.954,24.357 49.541,29.77 C46.927,32.383 43.432,34.434 39.95,35.397 C39.418,35.544 39.106,36.095 39.253,36.627 C39.376,37.07 39.778,37.36 40.217,37.36 L40.217,37.36 Z" id="Shape" fill="#F8FBFD">

</path>
        <path d="M29,10 C23.533,10 20,14.317 20,21 C20,21.553 20.448,22 21,22 C21.552,22 22,21.553 22,21 C22,15.448 24.682,12 29,12 C29.552,12 30,11.553 30,11 C30,10.447 29.552,10 29,10 L29,10 Z" id="Shape" fill="#F8FBFD">

</path>
        <path d="M9.044,31.184 C11.218,33.358 13.893,35.151 16.781,36.37 C16.908,36.424 17.04,36.449 17.169,36.449 C17.559,36.449 17.93,36.22 18.091,35.838 C18.306,35.329 18.067,34.742 17.558,34.528 C14.906,33.408 12.451,31.763 10.457,29.77 C5.045,24.357 4.485,17.644 9.063,13.065 C11.155,10.973 13.871,9.902 16.724,10.01 C17.273,10.059 17.743,9.606 17.766,9.054 C17.79,8.502 17.362,8.035 16.81,8.012 C13.384,7.86 10.142,9.158 7.649,11.651 C2.311,16.99 2.884,25.023 9.044,31.184 L9.044,31.184 Z" id="Shape" fill="#F8FBFD">

</path>
        <path d="M11.853,14.438 C11.462,14.047 10.83,14.047 10.439,14.438 C6.623,18.253 7.17,23.733 11.833,28.396 C12.028,28.591 12.284,28.689 12.54,28.689 C12.796,28.689 13.052,28.591 13.247,28.396 C13.638,28.005 13.638,27.373 13.247,26.982 C9.385,23.12 8.851,18.854 11.853,15.852 C12.243,15.462 12.243,14.829 11.853,14.438 L11.853,14.438 Z" id="Shape" fill="#F8FBFD">

</path>
    </g>
</svg>