<?xml version="1.0" encoding="UTF-8" standalone="no"?>
<!-- Uploaded to: SVG Repo, www.svgrepo.com, Generator: SVG Repo Mixer Tools -->
<svg width="800px" height="800px" viewBox="0 0 64 64" version="1.1" xmlns="http://www.w3.org/2000/svg" xmlns:xlink="http://www.w3.org/1999/xlink">

    <title>gen-flag-6</title>
    <desc>Created with Sketch.</desc>
    <defs>

</defs>
    <g id="64px-Line" stroke="none" stroke-width="1" fill="none" fill-rule="evenodd">
        <g id="gen-flag-6">

</g>
        <g id="Page-1" transform="translate(-168.000000, 4.000000)" fill="#F8FBFD">
            <path d="M201.4141,30 L203.7061,27.708 C203.7991,27.615 203.8721,27.505 203.9231,27.382 C203.9741,27.26 204.0001,27.13 204.0001,27 L204.0001,6 L216.9691,6 L208.2071,17.391 C207.9311,17.75 207.9311,18.25 208.2071,18.609 L216.9691,30 L201.4141,30 Z M200.5861,28 L200.0001,28.586 L200.0001,28 L200.5861,28 Z M182.0001,26 L202.0001,26 L202.0001,2 L182.0001,2 L182.0001,26 Z M210.2621,18 L219.7931,5.609 C220.0251,5.308 220.0651,4.9 219.8971,4.559 C219.7281,4.217 219.3811,4 219.0001,4 L204.0001,4 L204.0001,1 C204.0001,0.447 203.5531,0 203.0001,0 L181.0001,0 C180.4471,0 180.0001,0.447 180.0001,1 L180.0001,27 L180.0001,55 C180.0001,55.553 180.4471,56 181.0001,56 C181.5531,56 182.0001,55.553 182.0001,55 L182.0001,28 L198.0001,28 L198.0001,31 C198.0001,31.013 198.0071,31.023 198.0081,31.036 C198.0121,31.153 198.0291,31.271 198.0761,31.383 C198.0761,31.384 198.0771,31.385 198.0781,31.386 C198.0821,31.395 198.0891,31.401 198.0931,31.411 C198.1381,31.511 198.1991,31.598 198.2711,31.676 C198.2951,31.701 198.3211,31.721 198.3481,31.744 C198.4111,31.8 198.4801,31.847 198.5561,31.885 C198.5881,31.9 198.6171,31.917 198.6501,31.93 C198.7621,31.971 198.8771,32 199.0001,32 L219.0001,32 C219.3811,32 219.7281,31.783 219.8971,31.441 C220.0651,31.1 220.0251,30.692 219.7931,30.391 L210.2621,18 Z" id="Fill-1">

</path>
        </g>
    </g>
</svg>