<svg xmlns="http://www.w3.org/2000/svg" width="42" height="42" viewBox="380 4702 42 42"><path d="M401 4702c-11.6 0-21 9.4-21 21s9.4 21 21 21 21-9.4 21-21-9.4-21-21-21Zm10.752 15.195-13.498 13.559h-.01c-.172.171-.636.555-1.171.555-.384 0-.818-.212-1.182-.575l-5.654-5.654a.402.402 0 0 1 0-.576l1.798-1.797a.399.399 0 0 1 .282-.12c.101 0 .202.04.283.12l4.483 4.483 12.317-12.408a.399.399 0 0 1 .283-.121c.11 0 .212.04.282.12l1.767 1.828c.182.172.182.424.02.586Z" fill="#f8fbfd" fill-rule="evenodd" data-name="Icon ionic-ios-checkmark-circle"/></svg>